<?xml version="1.0" standalone="no"?>
<!DOCTYPE svg PUBLIC "-//W3C//DTD SVG 20010904//EN"
 "http://www.w3.org/TR/2001/REC-SVG-20010904/DTD/svg10.dtd">
<svg version="1.0" xmlns="http://www.w3.org/2000/svg"
 width="300.000000pt" height="169.000000pt" viewBox="0 0 300.000000 169.000000"
 preserveAspectRatio="xMidYMid meet">

<g transform="translate(0.000000,169.000000) scale(0.100000,-0.100000)"
fill="#000000" stroke="none">
<path d="M673 1487 c-17 -56 -84 -270 -148 -475 -64 -206 -115 -376 -112 -378
2 -2 33 9 68 25 58 26 135 47 198 53 21 3 28 16 63 126 22 67 43 120 48 117 4
-2 38 -56 75 -119 l69 -114 60 -7 c34 -4 105 -15 160 -26 54 -11 99 -19 101
-17 1 2 41 70 90 151 48 81 90 145 93 143 2 -3 33 -85 67 -182 l61 -176 90
-29 c137 -46 339 -96 440 -110 160 -22 285 14 389 112 115 109 165 228 172
414 6 140 -7 209 -62 321 -66 134 -188 225 -330 243 -38 5 -210 10 -382 11
l-312 2 -3 -108 -3 -108 -40 112 c-22 62 -43 112 -46 112 -4 0 -84 -141 -179
-312 -96 -172 -179 -321 -185 -331 -11 -16 -15 -15 -35 20 -13 21 -99 169
-193 328 -93 160 -172 293 -176 297 -3 3 -20 -39 -38 -95z m1544 -219 c112
-35 183 -127 191 -246 5 -79 -10 -134 -54 -194 -60 -84 -86 -91 -326 -96
l-208 -4 0 211 0 211 -88 0 -89 0 -25 65 c-23 57 -24 65 -10 65 97 1 428 13
431 16 9 8 120 -9 178 -28z"/>
<path d="M471 449 c-123 -21 -252 -108 -331 -224 l-34 -50 61 62 c70 70 173
125 267 142 200 36 470 -18 826 -167 266 -111 479 -156 740 -156 156 0 187 3
283 27 59 15 120 34 135 43 15 8 20 13 11 11 -103 -31 -196 -42 -349 -41 -245
1 -291 13 -886 222 -348 122 -553 159 -723 131z"/>
</g>
</svg>
