<?xml version="1.0" encoding="UTF-8"?>
<svg version="1.1" xmlns="http://www.w3.org/2000/svg" width="300" height="169">
<path d="M0 0 C0.66 0 1.32 0 2 0 C3.64220655 2.40995294 5.15026599 4.80314791 6.625 7.3125 C7.04523438 8.00279297 7.46546875 8.69308594 7.8984375 9.40429688 C11 14.61552608 11 14.61552608 11 18 C11.66 18 12.32 18 13 18 C13.62003906 19.15371094 14.24007812 20.30742187 14.87890625 21.49609375 C22.10291776 34.83209042 29.80412999 47.83813394 37.68408203 60.79541016 C39 63 39 63 40 65 C40.36351563 64.39414063 40.72703125 63.78828125 41.1015625 63.1640625 C41.85566406 61.90722656 41.85566406 61.90722656 42.625 60.625 C43.17285156 59.70976563 43.72070312 58.79453125 44.28515625 57.8515625 C45.36855727 56.05000728 46.45882182 54.25254591 47.55859375 52.4609375 C49.94085684 48.56268881 52.2040018 44.67932899 54.1875 40.5625 C57.1177341 34.54981184 60.53255722 28.82498822 63.90307617 23.05249023 C66.9535915 17.82384995 69.92860932 12.5665667 72.78125 7.2265625 C75.50508906 2.25031807 75.50508906 2.25031807 77 0 C77.66 0 78.32 0 79 0 C80.98 4.95 82.96 9.9 85 15 C85.495 8.565 85.495 8.565 86 2 C130.60243185 1.81187736 130.60243185 1.81187736 148.6875 2.25 C149.79826904 2.26409912 150.90903809 2.27819824 152.0534668 2.29272461 C165.64898375 2.71583693 175.41741272 7.93058101 184.6875 17.6875 C197.10617887 32.6417792 198.15358913 50.42615663 197 69 C195.31652841 83.21092688 187.72283031 96.64670389 177 106 C173.46710733 108.3568425 169.8830702 110.28810884 166 112 C165.19175781 112.35964844 164.38351563 112.71929687 163.55078125 113.08984375 C143.53690615 120.23108862 118.75888909 111.1274267 99.70825195 104.80053711 C96.9813055 103.94072315 96.9813055 103.94072315 94.03198242 103.46704102 C86.84368392 102.09325604 86.84368392 102.09325604 84.44921875 98.99047852 C83.24543177 96.38132213 82.37379984 93.81857549 81.5625 91.0625 C81.24667969 90.12059814 80.93085938 89.17869629 80.60546875 88.20825195 C79.69862236 85.48279445 78.84778584 82.74427185 78 80 C77.54663131 78.64632251 77.08783166 77.29443875 76.62109375 75.9453125 C75.71285267 73.30603356 74.8378087 70.6622474 74 68 C73.34 68 72.68 68 72 68 C70.35 70.97 68.7 73.94 67 77 C66.34 77 65.68 77 65 77 C64.90847656 77.69480469 64.81695312 78.38960938 64.72265625 79.10546875 C63.84484502 82.6214586 62.30948033 85.21522346 60.4375 88.3125 C59.79683594 89.38113281 59.15617187 90.44976562 58.49609375 91.55078125 C58.00238281 92.35902344 57.50867188 93.16726562 57 94 C50.78542758 93.55103849 44.75977874 92.88700253 38.6796875 91.5078125 C35.91039187 90.93249305 35.91039187 90.93249305 32.6953125 90.7421875 C24.10407254 89.98241798 24.10407254 89.98241798 21.12109375 87.328125 C19.53650436 84.96203512 18.28223448 82.54315758 17 80 C15.57883994 77.62248765 14.0977992 75.28325928 12.625 72.9375 C11.41499907 70.95935241 10.20607915 68.98054114 9 67 C8.79318604 67.62567871 8.58637207 68.25135742 8.37329102 68.89599609 C7.43792318 71.72285054 6.50024079 74.54893188 5.5625 77.375 C5.23701172 78.35984375 4.91152344 79.3446875 4.57617188 80.359375 C4.26357422 81.30039063 3.95097656 82.24140625 3.62890625 83.2109375 C3.34088135 84.08024902 3.05285645 84.94956055 2.75610352 85.84521484 C2 88 2 88 1 90 C-0.86335372 90.32563463 -2.74320679 90.55769996 -4.625 90.75 C-11.57030209 91.69394713 -17.4069601 93.91363039 -23.78515625 96.66015625 C-26.24942847 97.68718586 -28.42577571 98.40438968 -31 99 C-28.83918902 89.80608739 -26.16253222 80.81091026 -23.3125 71.8125 C-22.86936572 70.40389136 -22.42649852 68.99519868 -21.98388672 67.58642578 C-18.90660453 57.80596195 -15.77326074 48.04366914 -12.62939453 38.28442383 C-10.55691252 31.82356549 -8.62077334 25.34422948 -6.796875 18.80859375 C-4.96013231 12.33497613 -2.74419563 6.14177118 0 0 Z M91 33 C91.47730838 34.4589426 91.95691042 35.91713496 92.4375 37.375 C92.70433594 38.18710937 92.97117187 38.99921875 93.24609375 39.8359375 C93.95179729 42.01031799 93.95179729 42.01031799 95 44 C100.94 44 106.88 44 113 44 C113 57.86 113 71.72 113 86 C119.084375 86.0825 125.16875 86.165 131.4375 86.25 C133.33943115 86.28641602 135.2413623 86.32283203 137.20092773 86.36035156 C146.82046134 86.46948687 154.56703568 86.46608084 162.3046875 80.10546875 C168.72778872 72.26033765 170.66668783 66.72999745 170.40625 56.5078125 C169.57151506 49.30019733 166.50449703 44.10636835 161.3125 39.125 C153.24390161 32.88044155 145.31313325 31.40283847 135.296875 31.57421875 C133.67474091 31.57915092 133.67474091 31.57915092 132.01983643 31.58418274 C128.59613641 31.59981247 125.17344388 31.64381392 121.75 31.6875 C119.437508 31.69900413 117.12500674 31.7087855 114.8125 31.71679688 C112.59894836 31.73021652 110.38540522 31.74513827 108.171875 31.76171875 C107.14052429 31.76910568 106.10917358 31.77649261 105.04656982 31.78410339 C100.26184816 31.84752646 95.70358603 32.0086948 91 33 Z " fill="#343491" transform="translate(70,9)"/>
<path d="M0 0 C0.67651367 1.77709961 0.67651367 1.77709961 1 4 C-0.1081543 5.78344727 -0.1081543 5.78344727 -1.82421875 7.56640625 C-2.44103516 8.21673828 -3.05785156 8.86707031 -3.69335938 9.53710938 C-4.35142578 10.20548828 -5.00949219 10.87386719 -5.6875 11.5625 C-6.6455957 12.57086914 -6.6455957 12.57086914 -7.62304688 13.59960938 C-10.58069583 16.67960162 -13.44418034 19.60320183 -17 22 C-17.66 22 -18.32 22 -19 22 C-19.33 22.99 -19.66 23.98 -20 25 C-30.48149292 34.45006942 -46.53459167 39.82241532 -60 43 C-60.6098877 43.17442627 -61.21977539 43.34885254 -61.84814453 43.52856445 C-69.40791681 45.5252663 -77.10984511 45.44082495 -84.875 45.4375 C-85.62199158 45.43823517 -86.36898315 45.43897034 -87.13861084 45.43972778 C-114.61123226 45.36920646 -139.95693443 37.59124758 -165.85742188 29.14331055 C-166.531521 28.92347504 -167.20562012 28.70363953 -167.90014648 28.47714233 C-169.25346204 28.03565253 -170.60665317 27.59378111 -171.9597168 27.15151978 C-181.8912089 23.91141444 -191.75029473 21.04754626 -202 19 C-202.8971875 18.78988281 -203.794375 18.57976562 -204.71875 18.36328125 C-225.43257251 13.85610691 -249.92532219 13.96851379 -268.25 25.6875 C-269.08015625 26.26886719 -269.9103125 26.85023438 -270.765625 27.44921875 C-273 29 -273 29 -275.234375 30.01953125 C-277.35432759 30.93654426 -277.35432759 30.93654426 -278 34 C-278.66 34 -279.32 34 -280 34 C-280.2578125 34.54140625 -280.515625 35.0828125 -280.78125 35.640625 C-282.22466294 38.43492441 -283.83438534 41.08219346 -285.5 43.75 C-286.1084375 44.73484375 -286.716875 45.7196875 -287.34375 46.734375 C-288.16359375 47.85585937 -288.16359375 47.85585937 -289 49 C-289.66 49 -290.32 49 -291 49 C-291.63065451 41.52607315 -286.3386816 35.88621323 -281.84765625 30.34375 C-279.63212162 27.82061038 -277.35210893 25.39603626 -275 23 C-274.31292969 22.2884375 -273.62585938 21.576875 -272.91796875 20.84375 C-257.24739709 5.72557326 -234.59029265 1.8429322 -213.62304688 1.93310547 C-209.47489414 2.03889417 -205.37389973 2.43100052 -201.25 2.875 C-199.94530762 3.01252686 -199.94530762 3.01252686 -198.61425781 3.15283203 C-196.0750481 3.42606187 -193.53737272 3.71025108 -191 4 C-189.7315625 4.144375 -188.463125 4.28875 -187.15625 4.4375 C-176.17476248 5.84796629 -165.63246313 8.73477254 -154.9765625 11.640625 C-111.47811706 23.49582772 -58.67348504 37.27150803 -16.18359375 14.94140625 C-11.29285325 11.95895468 -5.63008728 8.26017455 -3 3 C-2.34 3 -1.68 3 -1 3 C-0.67 2.01 -0.34 1.02 0 0 Z " fill="#FFC312" transform="translate(295,102)"/>
<path d="M0 0 C1.11701294 0.34949707 1.11701294 0.34949707 2.2565918 0.70605469 C6.09000008 1.93924481 9.83615642 3.29896505 13.56640625 4.81640625 C19.86178124 7.37322056 26.26519555 9.59758963 32.6875 11.8125 C33.31862701 12.030271 33.94975403 12.24804199 34.6000061 12.47241211 C42.86552035 15.31638158 51.1566129 18.03316051 59.5625 20.4375 C60.36727783 20.66808105 61.17205566 20.89866211 62.0012207 21.13623047 C87.01246203 28.08102286 113.08316489 27.79289045 137.875 19.9375 C138.205 20.9275 138.535 21.9175 138.875 22.9375 C131.00303466 26.46871849 123.32575939 29.18604728 114.875 30.9375 C113.96234375 31.14375 113.0496875 31.35 112.109375 31.5625 C78.29787413 38.07166594 43.18185118 28.64918253 11.99609375 15.953125 C-14.32731033 5.2526158 -47.93556478 -7.56490843 -76.1796875 3.08984375 C-85.83111155 7.52262248 -93.55551635 13.88708906 -99.125 22.9375 C-99.785 22.9375 -100.445 22.9375 -101.125 22.9375 C-100.795 20.9575 -100.465 18.9775 -100.125 16.9375 C-99.465 16.9375 -98.805 16.9375 -98.125 16.9375 C-97.939375 16.2775 -97.75375 15.6175 -97.5625 14.9375 C-95.47470047 10.58035315 -92.45670776 7.40115658 -89.125 3.9375 C-88.52558594 3.31230469 -87.92617187 2.68710938 -87.30859375 2.04296875 C-64.20807555 -20.09301841 -26.64140852 -8.34158667 0 0 Z " fill="#3A3B89" transform="translate(110.125,132.0625)"/>
<path d="M0 0 C0 0.66 0 1.32 0 2 C-11.57858261 6.98126214 -20.31625114 9.31665392 -33 9 C-32.67 8.34 -32.34 7.68 -32 7 C-31.01 7 -30.02 7 -29 7 C-29 6.34 -29 5.68 -29 5 C-28.39526855 4.88930176 -27.79053711 4.77860352 -27.16748047 4.66455078 C-24.40248208 4.15580802 -21.63875332 3.64046193 -18.875 3.125 C-17.92367187 2.95097656 -16.97234375 2.77695313 -15.9921875 2.59765625 C-12.02922696 1.85460115 -8.27361193 1.09200577 -4.4453125 -0.1953125 C-2 -1 -2 -1 0 0 Z " fill="#3E3E84" transform="translate(249,153)"/>
<path d="M0 0 C0.66 0.33 1.32 0.66 2 1 C-2.75 5 -2.75 5 -5 5 C-5.309375 5.639375 -5.61875 6.27875 -5.9375 6.9375 C-7 9 -7 9 -8 10 C-7.34 10.66 -6.68 11.32 -6 12 C-6.67546875 12.58007812 -7.3509375 13.16015625 -8.046875 13.7578125 C-12.78602991 17.9079973 -16.7051404 21.64585314 -20 27 C-20.66 27 -21.32 27 -22 27 C-21.67 25.02 -21.34 23.04 -21 21 C-20.34 21 -19.68 21 -19 21 C-18.814375 20.34 -18.62875 19.68 -18.4375 19 C-14.92236431 11.66406464 -7.321425 3.6607125 0 0 Z " fill="#4D4D84" transform="translate(31,128)"/>
<path d="M0 0 C0.68530273 1.77050781 0.68530273 1.77050781 1 4 C-0.17163086 5.83105469 -0.17163086 5.83105469 -1.96484375 7.671875 C-2.59970703 8.33574219 -3.23457031 8.99960938 -3.88867188 9.68359375 C-4.56478516 10.36550781 -5.24089844 11.04742187 -5.9375 11.75 C-6.60974609 12.44738281 -7.28199219 13.14476563 -7.97460938 13.86328125 C-9.63892917 15.58661948 -11.31402265 17.29788738 -13 19 C-13.33 18.01 -13.66 17.02 -14 16 C-15.32 16.33 -16.64 16.66 -18 17 C-15.0202619 13.85790438 -11.61998658 11.39689 -8.15625 8.81640625 C-5.92744346 7.07914803 -5.92744346 7.07914803 -4.34375 4.77734375 C-3.9003125 4.19082031 -3.456875 3.60429688 -3 3 C-2.34 3 -1.68 3 -1 3 C-0.67 2.01 -0.34 1.02 0 0 Z " fill="#FFC938" transform="translate(295,102)"/>
<path d="M0 0 C0.33 0.66 0.66 1.32 1 2 C1.99 2.33 2.98 2.66 4 3 C3.60167969 3.51949219 3.20335937 4.03898438 2.79296875 4.57421875 C0.45126486 7.65660757 -1.79696723 10.65194382 -3.75 14 C-4.1625 14.66 -4.575 15.32 -5 16 C-5.66 16 -6.32 16 -7 16 C-7.47618831 11.34866066 -6.07415149 9.00276024 -3.5 5.1875 C-2.8503125 4.21167969 -2.200625 3.23585937 -1.53125 2.23046875 C-1.0259375 1.49441406 -0.520625 0.75835937 0 0 Z " fill="#FFD158" transform="translate(11,135)"/>
<path d="M0 0 C0 0.66 0 1.32 0 2 C-1.4317616 2.69937202 -2.87067032 3.38412718 -4.3125 4.0625 C-5.11300781 4.44535156 -5.91351563 4.82820312 -6.73828125 5.22265625 C-9 6 -9 6 -12 5 C-13.66362417 4.65179959 -15.32995171 4.31595508 -17 4 C-17 3.67 -17 3.34 -17 3 C-14.54383175 2.30378686 -12.0855877 1.61775372 -9.625 0.9375 C-8.57699219 0.63875977 -8.57699219 0.63875977 -7.5078125 0.33398438 C-2.2265625 -1.11328125 -2.2265625 -1.11328125 0 0 Z " fill="#51517B" transform="translate(249,153)"/>
<path d="M0 0 C-1.58561638 3.85593074 -4.06509954 6.33216291 -7 9.25 C-7.886875 10.14203125 -8.77375 11.0340625 -9.6875 11.953125 C-12 14 -12 14 -14 14 C-12.41438362 10.14406926 -9.93490046 7.66783709 -7 4.75 C-6.113125 3.85796875 -5.22625 2.9659375 -4.3125 2.046875 C-2 0 -2 0 0 0 Z " fill="#FFC82D" transform="translate(27,120)"/>
<path d="M0 0 C0.71484375 1.734375 0.71484375 1.734375 1 4 C-0.43359375 6.140625 -0.43359375 6.140625 -2.4375 8.25 C-3.09621094 8.95640625 -3.75492187 9.6628125 -4.43359375 10.390625 C-4.95050781 10.92171875 -5.46742188 11.4528125 -6 12 C-6.99 11.34 -7.98 10.68 -9 10 C-8.04882866 8.8274869 -7.08882991 7.66212985 -6.125 6.5 C-5.32449219 5.52546875 -5.32449219 5.52546875 -4.5078125 4.53125 C-4.01023437 4.0259375 -3.51265625 3.520625 -3 3 C-2.34 3 -1.68 3 -1 3 C-0.67 2.01 -0.34 1.02 0 0 Z " fill="#FFD15B" transform="translate(295,102)"/>
<path d="M0 0 C0.33 0.66 0.66 1.32 1 2 C1.99 2.33 2.98 2.66 4 3 C2.38405168 5.04119788 0.7143618 7.04072937 -1 9 C-1.66 9 -2.32 9 -3 9 C-2.69181644 7.68647977 -2.37832335 6.37420428 -2.0625 5.0625 C-1.88847656 4.33160156 -1.71445313 3.60070312 -1.53515625 2.84765625 C-1 1 -1 1 0 0 Z " fill="#FFCC3D" transform="translate(11,135)"/>
<path d="M0 0 C1.32 0.33 2.64 0.66 4 1 C4.625 3.3125 4.625 3.3125 5 6 C4.01 7.485 4.01 7.485 3 9 C2.01 6.03 1.02 3.06 0 0 Z " fill="#5556A3" transform="translate(143,73)"/>
<path d="M0 0 C1.32 0 2.64 0 4 0 C3.1875 2.4375 3.1875 2.4375 2 5 C1.01 5.33 0.02 5.66 -1 6 C-0.67 4.02 -0.34 2.04 0 0 Z " fill="#7B7A98" transform="translate(10,149)"/>
<path d="M0 0 C0.99 1.485 0.99 1.485 2 3 C2.53625 3.45375 3.0725 3.9075 3.625 4.375 C5.50709665 6.59929604 5.22916195 8.17366927 5 11 C4.01 11.495 4.01 11.495 3 12 C2.49166409 10.75336669 1.99368855 9.50250613 1.5 8.25 C1.2215625 7.55390625 0.943125 6.8578125 0.65625 6.140625 C0 4 0 4 0 0 Z " fill="#6162A9" transform="translate(148,85)"/>
</svg>
