<?xml version="1.0" encoding="UTF-8"?>
<svg version="1.1" xmlns="http://www.w3.org/2000/svg" width="195" height="148">
<path d="M0 0 C64.35 0 128.7 0 195 0 C195 48.84 195 97.68 195 148 C130.65 148 66.3 148 0 148 C0 99.16 0 50.32 0 0 Z " fill="#FDFDFE" transform="translate(0,0)"/>
<path d="M0 0 C9.57 0 19.14 0 29 0 C36.95156279 9.90457821 36.95156279 9.90457821 38.6171875 14.359375 C40.92357637 20.03633894 43.93410791 24.98932103 47.25 30.125 C52 37.68000504 52 37.68000504 52 40 C52.66 40 53.32 40 54 40 C54.25217285 39.1440625 54.5043457 38.288125 54.76416016 37.40625 C56.08196636 33.77408244 57.75542965 30.79266565 59.7734375 27.5 C60.13845367 26.90123047 60.50346985 26.30246094 60.87954712 25.68554688 C62.03909223 23.78686638 63.20701951 21.89350022 64.375 20 C65.15156794 18.72948819 65.92761434 17.45865744 66.703125 16.1875 C68.78667285 12.78182122 70.87606282 9.38072641 73 6 C73.47614746 4.89237305 73.95229492 3.78474609 74.44287109 2.64355469 C77.49616687 -0.51293631 78.44520946 -0.47261681 82.70800781 -0.77636719 C85.12272962 -0.81610403 87.5381918 -0.8204982 89.953125 -0.796875 C91.24128113 -0.80261536 92.52943726 -0.80835571 93.85662842 -0.81427002 C96.59072875 -0.82311875 99.32365377 -0.81027917 102.05761719 -0.78222656 C105.514592 -0.74843719 108.96875656 -0.7680073 112.42562866 -0.80288887 C131.69712106 -0.96786597 147.69299295 0.08815413 163 13 C163.71671875 13.59425781 164.4334375 14.18851563 165.171875 14.80078125 C173.54138073 22.39941145 178.47338385 33.03373394 179.21484375 44.25 C179.57182079 57.50098786 176.06028406 69.83690773 166.8125 79.75 C157.06956699 88.69890543 144.66222137 95.14370705 131.29174805 95.11352539 C130.17096359 95.11344986 129.05017914 95.11337433 127.89543152 95.11329651 C126.6963063 95.10813522 125.49718109 95.10297394 124.26171875 95.09765625 C123.02581497 95.0962413 121.78991119 95.09482635 120.51655579 95.09336853 C117.24341655 95.08872618 113.97032713 95.07975311 110.69720459 95.06866455 C107.35217752 95.05840404 104.00714827 95.05394631 100.66210938 95.04882812 C94.1080535 95.03780907 87.55403082 95.02107836 81 95 C79.39359533 81.78938798 83.29728048 74.14380829 90.3125 63.25 C91.20543582 61.80390805 92.09543173 60.35599646 92.98242188 58.90625 C99.27274504 48.72725496 99.27274504 48.72725496 103 45 C103 54.9 103 64.8 103 75 C107.74375 74.9175 112.4875 74.835 117.375 74.75 C119.58775635 74.72631348 119.58775635 74.72631348 121.84521484 74.70214844 C133.47692434 74.40369809 141.69239313 72.23399923 150.1484375 64.046875 C155.74647935 57.85832241 155.54348616 51.7000365 155.3359375 43.59765625 C154.67464385 36.51566266 152.29795642 32.8227191 146.9375 28.25 C136.04210429 19.63406328 122.95601359 20.34715016 109.8125 20.25 C107.88734345 20.22179614 105.96221142 20.19186266 104.03710938 20.16015625 C99.3581174 20.08681758 94.67941522 20.03692349 90 20 C89.72792725 20.8883252 89.45585449 21.77665039 89.17553711 22.69189453 C88.09233702 25.74015231 86.87324566 28.18105645 85.19140625 30.9296875 C84.61801514 31.87521484 84.04462402 32.82074219 83.45385742 33.79492188 C82.5176355 35.31956055 82.5176355 35.31956055 81.5625 36.875 C80.21502171 39.09047344 78.8686338 41.30658053 77.5234375 43.5234375 C77.1669664 44.10957825 76.8104953 44.69571899 76.44322205 45.29962158 C73.53855998 50.08483982 70.68846588 54.90092492 67.8515625 59.7265625 C66.98495314 61.19808442 66.11833534 62.66960137 65.25170898 64.14111328 C63.97055502 66.31711616 62.69101434 68.49399049 61.41629028 70.67376709 C60.22356591 72.71236062 59.02454314 74.74712491 57.82421875 76.78125 C57.46651398 77.39674713 57.1088092 78.01224426 56.74026489 78.64639282 C54.22746837 82.88626581 54.22746837 82.88626581 52 84 C51.61368408 83.32759277 51.22736816 82.65518555 50.8293457 81.96240234 C48.99175718 78.76581767 47.15212063 75.57041561 45.3125 72.375 C44.70599609 71.31925781 44.09949219 70.26351562 43.47460938 69.17578125 C37.07263556 58.06169472 30.52659863 47.04501307 24 36 C23.67 55.47 23.34 74.94 23 95 C15.41 95 7.82 95 0 95 C0 63.65 0 32.3 0 0 Z " fill="#06518E" transform="translate(8,27)"/>
</svg>
