<?xml version="1.0" encoding="UTF-8"?>
<svg version="1.1" xmlns="http://www.w3.org/2000/svg" width="283" height="138">
<path d="M0 0 C13.86 0.33 27.72 0.66 42 1 C46 11 46 11 46 13 C46.66 13.33 47.32 13.66 48 14 C48.96999127 16.21926795 49.84605428 18.41982761 50.6875 20.6875 C53.25446232 27.38783022 56.26076691 33.71762673 59.58203125 40.07421875 C61 43 61 43 61.4753418 44.92822266 C62.0345897 47.13658827 62.84004973 49.01575268 63.8125 51.07421875 C64.16570312 51.82380859 64.51890625 52.57339844 64.8828125 53.34570312 C65.25148438 54.11849609 65.62015625 54.89128906 66 55.6875 C66.36867188 56.47189453 66.73734375 57.25628906 67.1171875 58.06445312 C68.68196126 61.78273967 68.68196126 61.78273967 71 65 C71.103125 64.071875 71.20625 63.14375 71.3125 62.1875 C72 59 72 59 73.38476562 57.63549805 C75.47809211 55.51591006 76.3479011 53.37633882 77.53125 50.64453125 C78.00715576 49.5580127 78.48306152 48.47149414 78.97338867 47.35205078 C79.47717041 46.18399902 79.98095215 45.01594727 80.5 43.8125 C81.56757988 41.36784908 82.63640865 38.92378454 83.70703125 36.48046875 C83.97832352 35.85958374 84.24961578 35.23869873 84.52912903 34.59899902 C87.76594968 27.21129524 91.17400442 19.90194949 94.609375 12.60473633 C95.04121094 11.67556396 95.47304687 10.7463916 95.91796875 9.7890625 C96.29719482 8.98162598 96.6764209 8.17418945 97.06713867 7.34228516 C98.23203486 4.62251897 98.23203486 4.62251897 99 0 C112.53 0 126.06 0 140 0 C140.67834281 3.39171405 141.12474288 5.81501431 141.12025452 9.13191223 C141.12231651 10.3159967 141.12231651 10.3159967 141.12442017 11.52400208 C141.12082489 12.37564438 141.11722961 13.22728668 141.11352539 14.10473633 C141.11367142 15.01254852 141.11381744 15.92036072 141.1139679 16.85568237 C141.11327281 19.84782321 141.10549931 22.83990132 141.09765625 25.83203125 C141.09579064 27.90996771 141.09436741 29.98790462 141.09336853 32.06584167 C141.08955465 37.52877013 141.07973399 42.99167191 141.06866455 48.45458984 C141.05842616 54.03157185 141.05386571 59.60855818 141.04882812 65.18554688 C141.03811072 76.12370963 141.02104784 87.06185259 141 98 C137.98774506 99.50612747 134.88743937 99.12170642 131.5859375 99.09765625 C130.93923096 99.09664917 130.29252441 99.09564209 129.6262207 99.09460449 C127.20912911 99.08937024 124.79206279 99.07540898 122.375 99.0625 C116.97125 99.041875 111.5675 99.02125 106 99 C105.67 83.49 105.34 67.98 105 52 C102.89625 56.805625 100.7925 61.61125 98.625 66.5625 C97.9645166 68.06498291 97.3040332 69.56746582 96.62353516 71.11547852 C95.83922119 72.91650024 95.83922119 72.91650024 95.0390625 74.75390625 C94.76860107 75.36584839 94.49813965 75.97779053 94.21948242 76.60827637 C92.45070912 80.68812788 91.13933191 84.71428523 90 89 C89.34 89 88.68 89 88 89 C87.896875 89.680625 87.79375 90.36125 87.6875 91.0625 C86.86288548 94.58585294 85.42388576 97.6775999 84 101 C83.67 102.65 83.34 104.3 83 106 C74.75 106 66.5 106 58 106 C52.37018545 94.7403709 52.37018545 94.7403709 50.46484375 90.34375 C49.83932617 88.90322266 49.83932617 88.90322266 49.20117188 87.43359375 C48.78416016 86.46550781 48.36714844 85.49742188 47.9375 84.5 C47.51662109 83.53191406 47.09574219 82.56382813 46.66210938 81.56640625 C44.00019008 75.41716632 41.46543616 69.230559 39 63 C37.68 59.7 36.36 56.4 35 53 C34.67 80.72 34.34 108.44 34 137 C23.858775 142.0706125 11.33823423 138 0 138 C0 92.46 0 46.92 0 0 Z " fill="#F0B724" transform="translate(0,0)"/>
<path d="M0 0 C9.879375 -0.061875 19.75875 -0.12375 29.9375 -0.1875 C34.56060181 -0.22846802 34.56060181 -0.22846802 39.27709961 -0.27026367 C74.63748667 -0.45714182 74.63748667 -0.45714182 87.4375 6.625 C88.41867798 7.14223633 88.41867798 7.14223633 89.41967773 7.66992188 C95.39530801 10.95522829 100.29558093 15.06865163 105 20 C105.96486328 20.95326172 105.96486328 20.95326172 106.94921875 21.92578125 C118.88504471 34.43121279 122.3214777 50.98646076 122.4375 67.6875 C122.44765137 68.72028076 122.45780273 69.75306152 122.46826172 70.81713867 C122.27106834 88.27708496 115.28289915 105.35203818 103.375 118.1875 C88.2087473 132.44611981 69.14524581 136.36810603 48.9675293 136.22705078 C47.28219086 136.22748886 47.28219086 136.22748886 45.56280518 136.22793579 C41.89986064 136.22655776 38.23712714 136.2110693 34.57421875 136.1953125 C32.01447155 136.19157693 29.4547229 136.18873253 26.89497375 136.18673706 C20.87819251 136.17991689 14.86149994 136.16420213 8.84475404 136.14403808 C1.98606877 136.12155922 -4.87262034 136.11065574 -11.73133337 136.10064721 C-25.82093725 136.07983174 -39.9104479 136.04320419 -54 136 C-54 127.42 -54 118.84 -54 110 C-50.68984863 109.98541748 -47.37969727 109.97083496 -43.96923828 109.95581055 C-33.01283667 109.90539559 -22.05657615 109.83878814 -11.10031319 109.76428509 C-4.45977559 109.71962367 2.18065332 109.68035812 8.82128906 109.65356445 C15.23399423 109.62748958 21.64646507 109.58705693 28.05902481 109.53681374 C30.50130415 109.52017343 32.94362398 109.50864155 35.385952 109.50238609 C38.81598017 109.49271443 42.24541266 109.46461724 45.67529297 109.43237305 C47.1782618 109.43452568 47.1782618 109.43452568 48.71159363 109.4367218 C59.00979862 109.30047827 67.32030962 107.00102007 75 100 C85.27914367 89.1497928 85.55032273 75.97097545 85.30859375 61.859375 C84.90375512 51.23614066 81.77346845 42.46312085 74 35 C61.73481482 25.83068954 51.04873916 26.72948814 35 26 C35 49.43 35 72.86 35 97 C23.45 97 11.9 97 0 97 C0 64.99 0 32.98 0 0 Z " fill="#021F3D" transform="translate(160,1)"/>
<path d="" fill="#EEF3DC" transform="translate(0,0)"/>
<path d="" fill="#E7E9DB" transform="translate(0,0)"/>
<path d="" fill="#E6ECDE" transform="translate(0,0)"/>
<path d="" fill="#FFFFDA" transform="translate(0,0)"/>
<path d="" fill="#F1F5DA" transform="translate(0,0)"/>
<path d="" fill="#EDF0DD" transform="translate(0,0)"/>
<path d="" fill="#D6FEFE" transform="translate(0,0)"/>
<path d="" fill="#EAEBDB" transform="translate(0,0)"/>
<path d="" fill="#FAFDDE" transform="translate(0,0)"/>
<path d="" fill="#C9FFF4" transform="translate(0,0)"/>
<path d="" fill="#DDFFF7" transform="translate(0,0)"/>
<path d="" fill="#F0FAD8" transform="translate(0,0)"/>
<path d="" fill="#D8FCFC" transform="translate(0,0)"/>
<path d="" fill="#CAFCF0" transform="translate(0,0)"/>
<path d="" fill="#D9FFF2" transform="translate(0,0)"/>
<path d="" fill="#DEFFFF" transform="translate(0,0)"/>
<path d="" fill="#DBFFF6" transform="translate(0,0)"/>
</svg>
